<svg width="951" height="580" viewBox="0 0 951 580" fill="none" xmlns="http://www.w3.org/2000/svg">
<rect width="951" height="580" fill="#E5E5E5"/>
<g clip-path="url(#clip0)">
<rect width="951" height="580" fill="white"/>
<path d="M582.144 34.372C559.406 96.096 563.706 134.794 595.042 150.466C642.048 173.974 753.817 183.377 800.537 234.372C847.255 285.366 989.704 245.944 1014.07 158.422C1038.43 70.9 1082.29 -64 850.993 -64C696.791 -64 607.177 -31.21 582.145 34.372H582.144Z" fill="#FFFA72"/>
<path d="M439.157 116.442C375.49 289.269 387.53 397.623 475.271 441.505C606.887 507.327 919.841 533.656 1050.66 676.442C1181.47 819.225 1580.32 708.843 1648.54 463.782C1716.75 218.72 1839.57 -159 1191.93 -159C760.169 -159 509.249 -67.188 439.159 116.442H439.157Z" fill="#D3C9FF"/>
<path d="M470.71 106.286C410.454 269.854 421.849 372.404 504.89 413.935C629.455 476.231 925.644 501.149 1049.45 636.286C1173.25 771.42 1550.74 666.952 1615.3 435.018C1679.86 203.085 1796.1 -154.4 1183.16 -154.4C774.525 -154.4 537.047 -67.5065 470.712 106.286H470.71Z" fill="#C8BBFF"/>
<path d="M502.264 96.13C445.418 250.44 456.168 347.185 534.509 386.365C652.022 445.135 931.446 468.642 1048.24 596.13C1165.04 723.615 1521.16 625.06 1582.07 406.255C1642.97 187.45 1752.63 -149.8 1174.38 -149.8C788.881 -149.8 564.845 -67.825 502.266 96.13H502.264Z" fill="#BDADFF"/>
<path d="M533.817 85.9741C480.382 231.026 490.487 321.966 564.127 358.795C674.59 414.039 937.248 436.136 1047.04 555.974C1156.83 675.81 1491.58 583.168 1548.83 377.492C1606.09 171.815 1709.17 -145.2 1165.61 -145.2C803.237 -145.2 592.644 -68.1436 533.819 85.9741H533.817Z" fill="#B2A0FF"/>
<path d="M565.37 75.8183C515.346 211.611 524.806 296.747 593.746 331.225C697.158 382.943 943.051 403.629 1045.83 515.818C1148.61 628.005 1462 541.277 1515.6 348.728C1569.2 156.18 1665.7 -140.6 1156.84 -140.6C817.594 -140.6 620.442 -68.4621 565.372 75.8183H565.37Z" fill="#A792FF"/>
<path d="M596.924 65.6626C550.31 192.197 559.125 271.528 623.365 303.655C719.726 351.847 948.853 371.123 1044.63 475.663C1140.4 580.2 1432.42 499.385 1482.36 319.965C1532.31 140.545 1622.23 -136 1148.06 -136C831.95 -136 648.241 -68.7805 596.925 65.6626H596.924Z" fill="#9C85FF"/>
<path d="M628.477 55.5068C585.274 172.782 593.444 246.309 652.983 276.085C742.294 320.751 954.656 338.616 1043.42 435.507C1132.19 532.395 1402.84 457.494 1449.13 291.202C1495.42 124.91 1578.76 -131.4 1139.29 -131.4C846.306 -131.4 676.039 -69.099 628.479 55.5068H628.477Z" fill="#9177FF"/>
<path d="M660.031 45.351C620.238 153.368 627.763 221.089 682.602 248.515C764.862 289.654 960.458 306.11 1042.22 395.351C1123.97 484.59 1373.26 415.602 1415.89 262.438C1458.53 109.275 1535.29 -126.8 1130.52 -126.8C860.663 -126.8 703.838 -69.4175 660.032 45.351H660.031Z" fill="#8669FF"/>
<path d="M691.584 35.1951C655.202 133.954 662.083 195.87 712.221 220.946C787.429 258.558 966.26 273.603 1041.01 355.195C1115.76 436.786 1343.68 373.71 1382.66 233.675C1421.64 93.6399 1491.82 -122.2 1121.74 -122.2C875.019 -122.2 731.636 -69.7361 691.585 35.1951H691.584Z" fill="#7B5CFF"/>
<path d="M723.137 25.0393C690.166 114.539 696.402 170.651 741.839 193.376C809.997 227.462 972.063 241.097 1039.81 315.039C1107.55 388.981 1314.1 331.819 1349.42 204.912C1384.75 78.0049 1448.35 -117.6 1112.97 -117.6C889.375 -117.6 759.435 -70.0546 723.138 25.0393H723.137Z" fill="#704EFF"/>
<path d="M754.691 14.8836C725.131 95.1248 730.721 145.432 771.458 165.806C832.565 196.366 977.865 208.59 1038.6 274.884C1099.33 341.176 1284.52 289.927 1316.19 176.149C1347.86 62.37 1404.88 -113 1104.19 -113C903.732 -113 787.233 -70.373 754.692 14.8836H754.691Z" fill="#6541FF"/>
<path d="M786.244 4.72778C760.095 75.7104 765.04 120.213 801.076 138.236C855.133 165.27 983.668 176.084 1037.4 234.728C1091.12 293.371 1254.94 248.036 1282.95 147.385C1310.97 46.735 1361.41 -108.4 1095.42 -108.4C918.088 -108.4 815.031 -70.6915 786.245 4.72778H786.244Z" fill="#5A33FF"/>
</g>
<defs>
<clipPath id="clip0">
<rect width="951" height="580" fill="white"/>
</clipPath>
</defs>
</svg>
